<?xml version="1.0" standalone="no"?>
<!DOCTYPE svg PUBLIC "-//W3C//DTD SVG 20010904//EN"
 "http://www.w3.org/TR/2001/REC-SVG-20010904/DTD/svg10.dtd">
<svg version="1.0" xmlns="http://www.w3.org/2000/svg"
 width="1000.000000pt" height="1000.000000pt" viewBox="0 0 1000.000000 1000.000000"
 preserveAspectRatio="xMidYMid meet">
<metadata>
Created by potrace 1.11, written by Peter Selinger 2001-2013
</metadata>
<g transform="translate(0.000000,1000.000000) scale(0.100000,-0.100000)"
fill="#000000" stroke="none">
<path d="M4829 9256 c-2 -2 -38 -6 -79 -9 -376 -30 -788 -178 -1131 -405 -450
-298 -788 -730 -974 -1242 -15 -41 -28 -79 -29 -85 -2 -5 -10 -35 -19 -64 -29
-95 -68 -292 -82 -421 -13 -115 -14 -490 -2 -545 4 -18 18 -108 22 -145 5 -45
52 -242 71 -298 8 -24 12 -47 10 -51 -3 -4 -31 -13 -63 -21 -101 -22 -309 -98
-438 -159 -430 -205 -777 -510 -1045 -921 -81 -124 -198 -366 -248 -510 -39
-112 -94 -324 -106 -405 -4 -22 -9 -53 -11 -70 -13 -78 -17 -135 -20 -325 -1
-113 1 -232 5 -265 15 -118 22 -168 26 -189 2 -12 7 -37 10 -56 17 -97 89
-348 119 -415 7 -16 22 -52 33 -80 109 -273 300 -554 541 -795 117 -117 352
-310 399 -328 9 -3 38 -21 66 -39 118 -78 370 -192 556 -252 87 -28 266 -69
332 -77 29 -4 55 -8 58 -9 44 -25 669 -25 710 0 3 2 26 6 50 10 190 27 468
114 660 206 240 115 461 267 653 449 l108 103 72 -70 c209 -204 400 -339 652
-463 276 -135 562 -219 850 -248 144 -14 586 -5 616 13 3 2 23 6 45 9 34 4 80
13 161 30 136 29 341 101 503 178 260 123 483 281 695 493 411 410 654 914
720 1495 12 107 14 486 2 535 -3 11 -8 47 -12 80 -17 155 -97 454 -160 603
-31 72 -136 281 -168 334 -171 281 -407 541 -662 729 -250 184 -557 330 -858
409 -72 19 -87 26 -81 39 11 26 72 279 79 330 32 220 42 489 24 651 -11 99
-20 168 -25 194 -2 12 -6 35 -9 51 -94 486 -327 926 -680 1281 -217 219 -430
371 -697 498 -155 74 -385 157 -502 180 -11 3 -46 10 -76 16 -56 11 -68 13
-155 25 -27 4 -59 9 -70 12 -24 5 -441 14 -446 9z m483 -520 c211 -35 367 -86
563 -181 108 -52 317 -179 335 -204 3 -3 25 -22 50 -41 71 -54 206 -188 273
-270 34 -41 64 -77 67 -80 17 -14 127 -189 170 -271 78 -149 157 -365 185
-504 45 -227 55 -562 21 -730 -2 -11 -7 -40 -12 -65 -4 -25 -8 -47 -9 -50 -1
-3 -5 -21 -9 -40 -11 -49 -65 -223 -74 -236 -4 -7 -60 -14 -142 -18 -74 -3
-146 -8 -160 -10 -29 -5 -110 -16 -160 -22 -119 -15 -435 -111 -582 -178 l-58
-26 -14 23 c-16 25 -112 191 -166 287 -20 36 -67 116 -103 179 -37 62 -67 115
-67 118 0 2 -8 16 -19 31 -10 15 -103 175 -207 355 -127 222 -191 324 -197
315 -4 -7 -174 -301 -377 -652 -203 -352 -372 -642 -375 -645 -3 -3 -18 0 -33
6 -15 6 -58 24 -97 41 -184 77 -395 132 -640 166 -22 3 -107 9 -190 12 -82 4
-153 9 -157 13 -13 12 -77 240 -93 331 -25 146 -30 205 -30 375 0 165 6 239
25 335 6 30 13 69 16 85 45 263 217 612 416 850 68 81 212 226 263 265 74 56
110 86 113 92 2 5 7 8 12 8 5 0 39 21 77 46 172 116 454 230 673 273 90 17
112 21 180 27 36 4 67 8 69 10 11 10 379 -6 463 -20z m-117 -2936 c65 -113
124 -214 132 -226 12 -20 8 -25 -64 -85 -43 -35 -117 -102 -166 -148 l-87 -84
-83 79 c-104 100 -149 140 -208 184 l-46 35 78 135 c44 74 118 203 166 287
l86 151 37 -61 c20 -34 90 -154 155 -267z m-1616 -290 c149 -30 417 -121 408
-138 -2 -4 -34 -60 -71 -124 -64 -111 -69 -117 -89 -106 -12 6 -24 14 -27 17
-3 4 -39 34 -80 68 -71 57 -196 182 -267 266 l-31 37 28 0 c15 0 73 -9 129
-20z m2969 -12 c-63 -89 -350 -358 -382 -358 -6 0 -26 26 -44 58 -18 31 -48
84 -66 117 l-34 59 41 19 c71 32 274 96 355 111 42 9 86 17 97 19 54 12 58 9
33 -25z m-3641 -103 c44 -66 108 -156 143 -200 92 -116 309 -328 430 -419 58
-43 106 -82 108 -86 2 -6 -27 -58 -278 -490 -59 -102 -119 -206 -134 -232 -14
-26 -56 -98 -92 -160 -70 -118 -80 -136 -134 -232 -18 -32 -55 -95 -82 -140
l-48 -81 765 -3 765 -2 1 -33 c0 -17 2 -41 4 -52 2 -11 7 -40 10 -65 3 -25 7
-56 10 -70 3 -14 6 -36 9 -50 18 -107 96 -373 138 -470 52 -118 97 -211 135
-279 29 -52 39 -79 33 -90 -12 -23 -183 -188 -257 -249 -278 -227 -646 -382
-1025 -429 -139 -18 -458 -8 -573 17 -22 5 -55 12 -74 15 -62 11 -185 47 -281
83 -381 142 -715 405 -953 749 -56 81 -160 273 -204 378 -53 126 -103 323
-128 495 -12 92 -14 433 -2 490 3 14 8 43 11 65 45 311 181 631 383 903 74 99
286 312 385 385 175 131 375 236 572 301 100 34 262 76 278 73 3 -1 42 -56 85
-122z m4443 89 c128 -35 277 -92 391 -150 87 -44 271 -159 301 -187 7 -7 31
-25 53 -42 63 -47 220 -202 283 -279 31 -39 59 -73 62 -76 4 -3 34 -48 69
-100 137 -207 261 -512 297 -730 2 -14 6 -34 9 -46 23 -102 27 -466 6 -604
-49 -333 -184 -655 -388 -928 -60 -80 -253 -280 -336 -348 -222 -181 -564
-344 -833 -398 -181 -36 -236 -41 -429 -41 -185 0 -234 5 -414 40 -133 26
-314 89 -458 159 -202 99 -357 210 -525 376 l-118 116 83 165 c137 271 217
522 254 799 2 19 6 44 8 55 2 11 4 35 4 52 l1 33 759 2 760 3 -93 160 c-337
582 -431 745 -451 780 -13 22 -70 121 -127 221 l-105 180 101 75 c205 151 482
456 615 677 l44 73 41 -6 c22 -3 84 -17 136 -31z m-2780 -502 c71 -70 130
-132 130 -137 0 -6 -9 -21 -19 -34 l-18 -23 -79 16 c-83 17 -260 70 -281 84
-10 6 4 36 50 115 34 58 68 106 74 107 7 0 71 -57 143 -128z m1141 -74 c8 -15
-5 -22 -103 -52 -62 -20 -136 -40 -163 -46 -28 -5 -60 -12 -72 -16 -17 -5 -25
0 -38 26 l-16 31 78 81 c43 44 104 103 137 130 l59 49 54 -93 c30 -51 59 -101
64 -110z m-1521 -511 c111 -39 186 -61 244 -73 10 -2 20 -5 22 -6 2 -2 -8 -40
-21 -86 -26 -88 -60 -247 -70 -327 -3 -27 -7 -51 -9 -52 -2 -2 -152 -2 -334
-1 l-331 3 172 298 c127 222 175 297 187 293 8 -3 71 -25 140 -49z m1799 31
c7 -12 24 -40 36 -62 13 -23 84 -147 159 -276 l135 -235 -326 -3 c-179 -1
-327 -1 -329 1 -2 1 -6 25 -9 52 -10 80 -44 239 -70 328 -13 45 -21 85 -17 88
4 3 36 14 72 22 36 9 121 36 190 61 69 24 130 44 135 45 6 0 16 -9 24 -21z
m-917 -228 c26 -77 68 -237 74 -285 3 -22 7 -46 9 -52 3 -10 -30 -13 -145 -13
l-149 0 5 28 c22 123 61 268 99 370 3 9 19 12 47 10 40 -3 42 -4 60 -58z m94
-897 c-23 -163 -84 -393 -139 -523 l-15 -35 -27 60 c-27 60 -88 254 -99 310
-16 87 -36 212 -36 223 0 9 39 12 161 12 l161 0 -6 -47z"/>
</g>
</svg>
